<mxfile host="Electron" modified="2023-05-09T10:40:57.845Z" agent="Mozilla/5.0 (Macintosh; Intel Mac OS X 10_15_7) AppleWebKit/537.36 (KHTML, like Gecko) draw.io/21.2.8 Chrome/112.0.5615.165 Electron/24.2.0 Safari/537.36" etag="mqPKiUJDHuv4hAfxKhtp" version="21.2.8" type="device">
  <diagram name="Page-1" id="c85Xu-Nghij-yx0HgiqK">
    <mxGraphModel dx="1397" dy="1095" grid="1" gridSize="10" guides="1" tooltips="1" connect="1" arrows="1" fold="1" page="1" pageScale="1" pageWidth="850" pageHeight="1100" math="0" shadow="0">
      <root>
        <mxCell id="0" />
        <mxCell id="1" parent="0" />
        <mxCell id="PJXpSn4PHN6eOCxIjmZW-91" value="" style="rounded=1;whiteSpace=wrap;html=1;" vertex="1" parent="1">
          <mxGeometry x="550" y="440" width="210" height="320" as="geometry" />
        </mxCell>
        <mxCell id="PJXpSn4PHN6eOCxIjmZW-45" value="" style="rounded=1;whiteSpace=wrap;html=1;fillColor=none;movable=0;resizable=0;rotatable=0;deletable=0;editable=0;locked=1;connectable=0;" vertex="1" parent="1">
          <mxGeometry x="9.16" y="40" width="790" height="880" as="geometry" />
        </mxCell>
        <mxCell id="PJXpSn4PHN6eOCxIjmZW-22" value="" style="rounded=1;whiteSpace=wrap;html=1;" vertex="1" parent="1">
          <mxGeometry x="55" y="440" width="210" height="320" as="geometry" />
        </mxCell>
        <mxCell id="PJXpSn4PHN6eOCxIjmZW-51" style="edgeStyle=orthogonalEdgeStyle;rounded=0;orthogonalLoop=1;jettySize=auto;html=1;exitX=0.5;exitY=1;exitDx=0;exitDy=0;entryX=0.5;entryY=0;entryDx=0;entryDy=0;entryPerimeter=0;" edge="1" parent="1" source="PJXpSn4PHN6eOCxIjmZW-20" target="PJXpSn4PHN6eOCxIjmZW-7">
          <mxGeometry relative="1" as="geometry" />
        </mxCell>
        <mxCell id="PJXpSn4PHN6eOCxIjmZW-53" style="edgeStyle=orthogonalEdgeStyle;rounded=0;orthogonalLoop=1;jettySize=auto;html=1;exitX=0.5;exitY=1;exitDx=0;exitDy=0;entryX=0.5;entryY=0;entryDx=0;entryDy=0;entryPerimeter=0;" edge="1" parent="1" source="PJXpSn4PHN6eOCxIjmZW-20" target="PJXpSn4PHN6eOCxIjmZW-33">
          <mxGeometry relative="1" as="geometry" />
        </mxCell>
        <mxCell id="PJXpSn4PHN6eOCxIjmZW-99" style="edgeStyle=orthogonalEdgeStyle;rounded=0;orthogonalLoop=1;jettySize=auto;html=1;exitX=0.5;exitY=1;exitDx=0;exitDy=0;entryX=0.5;entryY=0;entryDx=0;entryDy=0;entryPerimeter=0;" edge="1" parent="1" source="PJXpSn4PHN6eOCxIjmZW-20" target="PJXpSn4PHN6eOCxIjmZW-92">
          <mxGeometry relative="1" as="geometry" />
        </mxCell>
        <mxCell id="PJXpSn4PHN6eOCxIjmZW-20" value="" style="rounded=1;whiteSpace=wrap;html=1;dashed=1;" vertex="1" parent="1">
          <mxGeometry x="25" y="100" width="310" height="254" as="geometry" />
        </mxCell>
        <mxCell id="PJXpSn4PHN6eOCxIjmZW-17" style="edgeStyle=orthogonalEdgeStyle;rounded=0;orthogonalLoop=1;jettySize=auto;html=1;entryX=0.995;entryY=0.63;entryDx=0;entryDy=0;entryPerimeter=0;" edge="1" parent="1" source="PJXpSn4PHN6eOCxIjmZW-5" target="PJXpSn4PHN6eOCxIjmZW-16">
          <mxGeometry relative="1" as="geometry" />
        </mxCell>
        <mxCell id="PJXpSn4PHN6eOCxIjmZW-19" style="edgeStyle=orthogonalEdgeStyle;rounded=0;orthogonalLoop=1;jettySize=auto;html=1;exitX=0.5;exitY=0;exitDx=0;exitDy=0;exitPerimeter=0;" edge="1" parent="1">
          <mxGeometry relative="1" as="geometry">
            <mxPoint x="189" y="249" as="sourcePoint" />
            <mxPoint x="105" y="154" as="targetPoint" />
            <Array as="points">
              <mxPoint x="189" y="154" />
            </Array>
          </mxGeometry>
        </mxCell>
        <mxCell id="PJXpSn4PHN6eOCxIjmZW-50" style="edgeStyle=orthogonalEdgeStyle;rounded=0;orthogonalLoop=1;jettySize=auto;html=1;exitX=0.995;exitY=0.63;exitDx=0;exitDy=0;exitPerimeter=0;entryX=0.005;entryY=0.63;entryDx=0;entryDy=0;entryPerimeter=0;" edge="1" parent="1" source="PJXpSn4PHN6eOCxIjmZW-5" target="PJXpSn4PHN6eOCxIjmZW-6">
          <mxGeometry relative="1" as="geometry" />
        </mxCell>
        <mxCell id="PJXpSn4PHN6eOCxIjmZW-5" value="Kubernetes API" style="sketch=0;html=1;dashed=0;whitespace=wrap;fillColor=#2875E2;strokeColor=#ffffff;points=[[0.005,0.63,0],[0.1,0.2,0],[0.9,0.2,0],[0.5,0,0],[0.995,0.63,0],[0.72,0.99,0],[0.5,1,0],[0.28,0.99,0]];verticalLabelPosition=bottom;align=center;verticalAlign=top;shape=mxgraph.kubernetes.icon;prIcon=api" vertex="1" parent="1">
          <mxGeometry x="165" y="249" width="50" height="50" as="geometry" />
        </mxCell>
        <mxCell id="PJXpSn4PHN6eOCxIjmZW-6" value="etcd" style="sketch=0;html=1;dashed=0;whitespace=wrap;fillColor=#2875E2;strokeColor=#ffffff;points=[[0.005,0.63,0],[0.1,0.2,0],[0.9,0.2,0],[0.5,0,0],[0.995,0.63,0],[0.72,0.99,0],[0.5,1,0],[0.28,0.99,0]];verticalLabelPosition=bottom;align=center;verticalAlign=top;shape=mxgraph.kubernetes.icon;prIcon=etcd" vertex="1" parent="1">
          <mxGeometry x="252.5" y="224" width="50" height="48" as="geometry" />
        </mxCell>
        <mxCell id="PJXpSn4PHN6eOCxIjmZW-7" value="kubelet" style="sketch=0;html=1;dashed=0;whitespace=wrap;fillColor=#2875E2;strokeColor=#ffffff;points=[[0.005,0.63,0],[0.1,0.2,0],[0.9,0.2,0],[0.5,0,0],[0.995,0.63,0],[0.72,0.99,0],[0.5,1,0],[0.28,0.99,0]];verticalLabelPosition=bottom;align=center;verticalAlign=top;shape=mxgraph.kubernetes.icon;prIcon=kubelet" vertex="1" parent="1">
          <mxGeometry x="80" y="460" width="50" height="48" as="geometry" />
        </mxCell>
        <mxCell id="PJXpSn4PHN6eOCxIjmZW-14" value="controller manager" style="sketch=0;html=1;dashed=0;whitespace=wrap;fillColor=#2875E2;strokeColor=#ffffff;points=[[0.005,0.63,0],[0.1,0.2,0],[0.9,0.2,0],[0.5,0,0],[0.995,0.63,0],[0.72,0.99,0],[0.5,1,0],[0.28,0.99,0]];verticalLabelPosition=bottom;align=center;verticalAlign=top;shape=mxgraph.kubernetes.icon;prIcon=c_m" vertex="1" parent="1">
          <mxGeometry x="60" y="130" width="50" height="48" as="geometry" />
        </mxCell>
        <mxCell id="PJXpSn4PHN6eOCxIjmZW-16" value="scheduler" style="sketch=0;html=1;dashed=0;whitespace=wrap;fillColor=#2875E2;strokeColor=#ffffff;points=[[0.005,0.63,0],[0.1,0.2,0],[0.9,0.2,0],[0.5,0,0],[0.995,0.63,0],[0.72,0.99,0],[0.5,1,0],[0.28,0.99,0]];verticalLabelPosition=bottom;align=center;verticalAlign=top;shape=mxgraph.kubernetes.icon;prIcon=sched" vertex="1" parent="1">
          <mxGeometry x="57.5" y="212" width="50" height="48" as="geometry" />
        </mxCell>
        <mxCell id="PJXpSn4PHN6eOCxIjmZW-21" value="Control Plane" style="text;html=1;strokeColor=none;fillColor=none;align=center;verticalAlign=middle;whiteSpace=wrap;rounded=0;" vertex="1" parent="1">
          <mxGeometry x="195" y="100" width="130" height="30" as="geometry" />
        </mxCell>
        <mxCell id="PJXpSn4PHN6eOCxIjmZW-23" value="kube-proxy" style="sketch=0;html=1;dashed=0;whitespace=wrap;fillColor=#2875E2;strokeColor=#ffffff;points=[[0.005,0.63,0],[0.1,0.2,0],[0.9,0.2,0],[0.5,0,0],[0.995,0.63,0],[0.72,0.99,0],[0.5,1,0],[0.28,0.99,0]];verticalLabelPosition=bottom;align=center;verticalAlign=top;shape=mxgraph.kubernetes.icon;prIcon=k_proxy" vertex="1" parent="1">
          <mxGeometry x="180" y="460" width="50" height="48" as="geometry" />
        </mxCell>
        <mxCell id="PJXpSn4PHN6eOCxIjmZW-26" value="Container runtime" style="image;sketch=0;aspect=fixed;html=1;points=[];align=center;fontSize=12;image=img/lib/mscae/Docker.svg;" vertex="1" parent="1">
          <mxGeometry x="130" y="590" width="50" height="41" as="geometry" />
        </mxCell>
        <mxCell id="PJXpSn4PHN6eOCxIjmZW-32" value="" style="rounded=1;whiteSpace=wrap;html=1;" vertex="1" parent="1">
          <mxGeometry x="295" y="440" width="210" height="320" as="geometry" />
        </mxCell>
        <mxCell id="PJXpSn4PHN6eOCxIjmZW-33" value="kubelet" style="sketch=0;html=1;dashed=0;whitespace=wrap;fillColor=#2875E2;strokeColor=#ffffff;points=[[0.005,0.63,0],[0.1,0.2,0],[0.9,0.2,0],[0.5,0,0],[0.995,0.63,0],[0.72,0.99,0],[0.5,1,0],[0.28,0.99,0]];verticalLabelPosition=bottom;align=center;verticalAlign=top;shape=mxgraph.kubernetes.icon;prIcon=kubelet" vertex="1" parent="1">
          <mxGeometry x="327.5" y="460" width="50" height="48" as="geometry" />
        </mxCell>
        <mxCell id="PJXpSn4PHN6eOCxIjmZW-34" value="kube-proxy" style="sketch=0;html=1;dashed=0;whitespace=wrap;fillColor=#2875E2;strokeColor=#ffffff;points=[[0.005,0.63,0],[0.1,0.2,0],[0.9,0.2,0],[0.5,0,0],[0.995,0.63,0],[0.72,0.99,0],[0.5,1,0],[0.28,0.99,0]];verticalLabelPosition=bottom;align=center;verticalAlign=top;shape=mxgraph.kubernetes.icon;prIcon=k_proxy" vertex="1" parent="1">
          <mxGeometry x="417.5" y="460" width="50" height="48" as="geometry" />
        </mxCell>
        <mxCell id="PJXpSn4PHN6eOCxIjmZW-35" value="Container runtime" style="image;sketch=0;aspect=fixed;html=1;points=[];align=center;fontSize=12;image=img/lib/mscae/Docker.svg;" vertex="1" parent="1">
          <mxGeometry x="370" y="590" width="50" height="41" as="geometry" />
        </mxCell>
        <mxCell id="PJXpSn4PHN6eOCxIjmZW-36" value="pod 1" style="sketch=0;html=1;dashed=0;whitespace=wrap;fillColor=#2875E2;strokeColor=#ffffff;points=[[0.005,0.63,0],[0.1,0.2,0],[0.9,0.2,0],[0.5,0,0],[0.995,0.63,0],[0.72,0.99,0],[0.5,1,0],[0.28,0.99,0]];verticalLabelPosition=bottom;align=center;verticalAlign=top;shape=mxgraph.kubernetes.icon;prIcon=pod" vertex="1" parent="1">
          <mxGeometry x="327.5" y="660" width="50" height="48" as="geometry" />
        </mxCell>
        <mxCell id="PJXpSn4PHN6eOCxIjmZW-37" value="pod 2" style="sketch=0;html=1;dashed=0;whitespace=wrap;fillColor=#2875E2;strokeColor=#ffffff;points=[[0.005,0.63,0],[0.1,0.2,0],[0.9,0.2,0],[0.5,0,0],[0.995,0.63,0],[0.72,0.99,0],[0.5,1,0],[0.28,0.99,0]];verticalLabelPosition=bottom;align=center;verticalAlign=top;shape=mxgraph.kubernetes.icon;prIcon=pod" vertex="1" parent="1">
          <mxGeometry x="417.5" y="660" width="50" height="48" as="geometry" />
        </mxCell>
        <mxCell id="PJXpSn4PHN6eOCxIjmZW-39" value="Worker Node - 1" style="text;html=1;strokeColor=none;fillColor=none;align=center;verticalAlign=middle;whiteSpace=wrap;rounded=0;" vertex="1" parent="1">
          <mxGeometry x="130" y="760" width="165" height="30" as="geometry" />
        </mxCell>
        <mxCell id="PJXpSn4PHN6eOCxIjmZW-40" value="Worker Node - 2" style="text;html=1;strokeColor=none;fillColor=none;align=center;verticalAlign=middle;whiteSpace=wrap;rounded=0;" vertex="1" parent="1">
          <mxGeometry x="360" y="760" width="165" height="30" as="geometry" />
        </mxCell>
        <mxCell id="PJXpSn4PHN6eOCxIjmZW-41" value="pod 1" style="sketch=0;html=1;dashed=0;whitespace=wrap;fillColor=#2875E2;strokeColor=#ffffff;points=[[0.005,0.63,0],[0.1,0.2,0],[0.9,0.2,0],[0.5,0,0],[0.995,0.63,0],[0.72,0.99,0],[0.5,1,0],[0.28,0.99,0]];verticalLabelPosition=bottom;align=center;verticalAlign=top;shape=mxgraph.kubernetes.icon;prIcon=pod" vertex="1" parent="1">
          <mxGeometry x="80" y="660" width="50" height="48" as="geometry" />
        </mxCell>
        <mxCell id="PJXpSn4PHN6eOCxIjmZW-42" value="pod 2" style="sketch=0;html=1;dashed=0;whitespace=wrap;fillColor=#2875E2;strokeColor=#ffffff;points=[[0.005,0.63,0],[0.1,0.2,0],[0.9,0.2,0],[0.5,0,0],[0.995,0.63,0],[0.72,0.99,0],[0.5,1,0],[0.28,0.99,0]];verticalLabelPosition=bottom;align=center;verticalAlign=top;shape=mxgraph.kubernetes.icon;prIcon=pod" vertex="1" parent="1">
          <mxGeometry x="180" y="660" width="50" height="48" as="geometry" />
        </mxCell>
        <mxCell id="PJXpSn4PHN6eOCxIjmZW-46" value="Kubernetes Cluster" style="text;html=1;strokeColor=none;fillColor=none;align=center;verticalAlign=middle;whiteSpace=wrap;rounded=0;" vertex="1" parent="1">
          <mxGeometry x="80" y="50" width="140" height="30" as="geometry" />
        </mxCell>
        <mxCell id="PJXpSn4PHN6eOCxIjmZW-54" value="&lt;div style=&quot;text-align: left;&quot;&gt;&lt;span style=&quot;background-color: initial;&quot;&gt;&lt;b&gt;&amp;nbsp; kubelet:&lt;/b&gt;&lt;/span&gt;&lt;/div&gt;&lt;div style=&quot;text-align: left;&quot;&gt;&lt;ul&gt;&lt;li&gt;&lt;span style=&quot;background-color: initial;&quot;&gt;responsible for scheduling and ensuring apps are properly running in a node&lt;/span&gt;&lt;/li&gt;&lt;li&gt;&lt;span style=&quot;background-color: initial;&quot;&gt;charge of communicating with the Control Plane&lt;/span&gt;&lt;/li&gt;&lt;/ul&gt;&lt;/div&gt;" style="text;html=1;strokeColor=none;fillColor=none;align=center;verticalAlign=middle;whiteSpace=wrap;rounded=0;" vertex="1" parent="1">
          <mxGeometry x="810" y="440" width="240" height="130" as="geometry" />
        </mxCell>
        <mxCell id="PJXpSn4PHN6eOCxIjmZW-55" value="&lt;b&gt;kube-proxy:&lt;/b&gt;&lt;br&gt;&lt;ul style=&quot;&quot;&gt;&lt;li style=&quot;&quot;&gt;network proxy that allows network traffic to be redirected into the Pods in the Node&lt;br&gt;&lt;/li&gt;&lt;/ul&gt;" style="text;html=1;strokeColor=none;fillColor=none;align=left;verticalAlign=middle;whiteSpace=wrap;rounded=0;" vertex="1" parent="1">
          <mxGeometry x="810" y="561" width="240" height="99" as="geometry" />
        </mxCell>
        <mxCell id="PJXpSn4PHN6eOCxIjmZW-59" value="&lt;div style=&quot;text-align: left;&quot;&gt;&lt;b style=&quot;background-color: initial;&quot;&gt;etcd:&lt;/b&gt;&lt;/div&gt;&lt;div style=&quot;&quot;&gt;&lt;ul&gt;&lt;li style=&quot;text-align: left;&quot;&gt;all the important data used by Kubernetes&lt;br&gt;&lt;/li&gt;&lt;/ul&gt;&lt;/div&gt;" style="text;html=1;strokeColor=none;fillColor=none;align=center;verticalAlign=middle;whiteSpace=wrap;rounded=0;" vertex="1" parent="1">
          <mxGeometry x="820" y="119.5" width="240" height="70" as="geometry" />
        </mxCell>
        <mxCell id="PJXpSn4PHN6eOCxIjmZW-60" value="&lt;span style=&quot;background-color: initial;&quot;&gt;&lt;b&gt;kube-scheduler:&lt;/b&gt;&lt;/span&gt;&lt;br&gt;&lt;ul&gt;&lt;li&gt;decides when and where to run a Pod&lt;/li&gt;&lt;/ul&gt;" style="text;html=1;strokeColor=none;fillColor=none;align=left;verticalAlign=middle;whiteSpace=wrap;rounded=0;" vertex="1" parent="1">
          <mxGeometry x="820" y="198.5" width="240" height="70" as="geometry" />
        </mxCell>
        <mxCell id="PJXpSn4PHN6eOCxIjmZW-62" value="&lt;span style=&quot;background-color: initial;&quot;&gt;&lt;b&gt;kube-controller-manager:&amp;nbsp;&lt;/b&gt;&lt;/span&gt;&lt;br&gt;&lt;ul&gt;&lt;li&gt;responsible for handling the controller services in your cluster&lt;/li&gt;&lt;/ul&gt;" style="text;html=1;strokeColor=none;fillColor=none;align=left;verticalAlign=middle;whiteSpace=wrap;rounded=0;" vertex="1" parent="1">
          <mxGeometry x="820" y="277.5" width="240" height="76" as="geometry" />
        </mxCell>
        <mxCell id="PJXpSn4PHN6eOCxIjmZW-65" value="&lt;b style=&quot;border-color: var(--border-color);&quot;&gt;pod:&lt;/b&gt;&lt;br style=&quot;border-color: var(--border-color);&quot;&gt;&lt;ul style=&quot;border-color: var(--border-color);&quot;&gt;&lt;li style=&quot;border-color: var(--border-color);&quot;&gt;computing unit that hosts one or more containers that shares resources such as storage and network&lt;/li&gt;&lt;/ul&gt;" style="text;html=1;strokeColor=none;fillColor=none;align=left;verticalAlign=middle;whiteSpace=wrap;rounded=0;" vertex="1" parent="1">
          <mxGeometry x="810" y="680" width="240" height="80" as="geometry" />
        </mxCell>
        <mxCell id="PJXpSn4PHN6eOCxIjmZW-72" style="edgeStyle=orthogonalEdgeStyle;rounded=0;orthogonalLoop=1;jettySize=auto;html=1;entryX=0.5;entryY=0;entryDx=0;entryDy=0;entryPerimeter=0;strokeColor=#67AB9F;" edge="1" parent="1" source="PJXpSn4PHN6eOCxIjmZW-67" target="PJXpSn4PHN6eOCxIjmZW-34">
          <mxGeometry relative="1" as="geometry" />
        </mxCell>
        <mxCell id="PJXpSn4PHN6eOCxIjmZW-100" style="edgeStyle=orthogonalEdgeStyle;rounded=0;orthogonalLoop=1;jettySize=auto;html=1;entryX=0.5;entryY=0;entryDx=0;entryDy=0;entryPerimeter=0;strokeColor=#67AB9F;" edge="1" parent="1" source="PJXpSn4PHN6eOCxIjmZW-67" target="PJXpSn4PHN6eOCxIjmZW-93">
          <mxGeometry relative="1" as="geometry">
            <Array as="points">
              <mxPoint x="442" y="380" />
              <mxPoint x="698" y="380" />
            </Array>
          </mxGeometry>
        </mxCell>
        <mxCell id="PJXpSn4PHN6eOCxIjmZW-101" style="edgeStyle=orthogonalEdgeStyle;rounded=0;orthogonalLoop=1;jettySize=auto;html=1;entryX=0.5;entryY=0;entryDx=0;entryDy=0;entryPerimeter=0;strokeColor=#67AB9F;" edge="1" parent="1" source="PJXpSn4PHN6eOCxIjmZW-67" target="PJXpSn4PHN6eOCxIjmZW-23">
          <mxGeometry relative="1" as="geometry">
            <Array as="points">
              <mxPoint x="442" y="380" />
              <mxPoint x="205" y="380" />
            </Array>
          </mxGeometry>
        </mxCell>
        <mxCell id="PJXpSn4PHN6eOCxIjmZW-104" value="HTTP requests to service" style="edgeLabel;html=1;align=center;verticalAlign=middle;resizable=0;points=[];" vertex="1" connectable="0" parent="PJXpSn4PHN6eOCxIjmZW-101">
          <mxGeometry x="-0.7085" y="-2" relative="1" as="geometry">
            <mxPoint x="2" y="-3" as="offset" />
          </mxGeometry>
        </mxCell>
        <mxCell id="PJXpSn4PHN6eOCxIjmZW-67" value="users" style="sketch=0;outlineConnect=0;gradientColor=none;fontColor=#545B64;strokeColor=none;fillColor=#879196;dashed=0;verticalLabelPosition=bottom;verticalAlign=top;align=center;html=1;fontSize=12;fontStyle=0;aspect=fixed;shape=mxgraph.aws4.illustration_users;pointerEvents=1" vertex="1" parent="1">
          <mxGeometry x="422.5" y="260" width="39" height="39" as="geometry" />
        </mxCell>
        <mxCell id="PJXpSn4PHN6eOCxIjmZW-78" value="kubectl" style="edgeStyle=orthogonalEdgeStyle;rounded=0;orthogonalLoop=1;jettySize=auto;html=1;entryX=0.9;entryY=0.2;entryDx=0;entryDy=0;entryPerimeter=0;" edge="1" parent="1" source="PJXpSn4PHN6eOCxIjmZW-77" target="PJXpSn4PHN6eOCxIjmZW-5">
          <mxGeometry x="-0.3699" relative="1" as="geometry">
            <Array as="points">
              <mxPoint x="409" y="160" />
              <mxPoint x="210" y="160" />
            </Array>
            <mxPoint as="offset" />
          </mxGeometry>
        </mxCell>
        <mxCell id="PJXpSn4PHN6eOCxIjmZW-77" value="developer" style="sketch=0;outlineConnect=0;fontColor=#232F3E;gradientColor=none;fillColor=#232F3D;strokeColor=none;dashed=0;verticalLabelPosition=bottom;verticalAlign=top;align=center;html=1;fontSize=12;fontStyle=0;aspect=fixed;pointerEvents=1;shape=mxgraph.aws4.user;" vertex="1" parent="1">
          <mxGeometry x="422.5" y="140" width="38" height="38" as="geometry" />
        </mxCell>
        <mxCell id="PJXpSn4PHN6eOCxIjmZW-80" value="persistent volume" style="sketch=0;html=1;dashed=0;whitespace=wrap;fillColor=#2875E2;strokeColor=#ffffff;points=[[0.005,0.63,0],[0.1,0.2,0],[0.9,0.2,0],[0.5,0,0],[0.995,0.63,0],[0.72,0.99,0],[0.5,1,0],[0.28,0.99,0]];verticalLabelPosition=bottom;align=center;verticalAlign=top;shape=mxgraph.kubernetes.icon;prIcon=pv" vertex="1" parent="1">
          <mxGeometry x="85" y="810" width="50" height="48" as="geometry" />
        </mxCell>
        <mxCell id="PJXpSn4PHN6eOCxIjmZW-92" value="kubelet" style="sketch=0;html=1;dashed=0;whitespace=wrap;fillColor=#2875E2;strokeColor=#ffffff;points=[[0.005,0.63,0],[0.1,0.2,0],[0.9,0.2,0],[0.5,0,0],[0.995,0.63,0],[0.72,0.99,0],[0.5,1,0],[0.28,0.99,0]];verticalLabelPosition=bottom;align=center;verticalAlign=top;shape=mxgraph.kubernetes.icon;prIcon=kubelet" vertex="1" parent="1">
          <mxGeometry x="582.5" y="460" width="50" height="48" as="geometry" />
        </mxCell>
        <mxCell id="PJXpSn4PHN6eOCxIjmZW-93" value="kube-proxy" style="sketch=0;html=1;dashed=0;whitespace=wrap;fillColor=#2875E2;strokeColor=#ffffff;points=[[0.005,0.63,0],[0.1,0.2,0],[0.9,0.2,0],[0.5,0,0],[0.995,0.63,0],[0.72,0.99,0],[0.5,1,0],[0.28,0.99,0]];verticalLabelPosition=bottom;align=center;verticalAlign=top;shape=mxgraph.kubernetes.icon;prIcon=k_proxy" vertex="1" parent="1">
          <mxGeometry x="672.5" y="460" width="50" height="48" as="geometry" />
        </mxCell>
        <mxCell id="PJXpSn4PHN6eOCxIjmZW-94" value="Container runtime" style="image;sketch=0;aspect=fixed;html=1;points=[];align=center;fontSize=12;image=img/lib/mscae/Docker.svg;" vertex="1" parent="1">
          <mxGeometry x="630" y="590" width="50" height="41" as="geometry" />
        </mxCell>
        <mxCell id="PJXpSn4PHN6eOCxIjmZW-95" value="pod 1" style="sketch=0;html=1;dashed=0;whitespace=wrap;fillColor=#2875E2;strokeColor=#ffffff;points=[[0.005,0.63,0],[0.1,0.2,0],[0.9,0.2,0],[0.5,0,0],[0.995,0.63,0],[0.72,0.99,0],[0.5,1,0],[0.28,0.99,0]];verticalLabelPosition=bottom;align=center;verticalAlign=top;shape=mxgraph.kubernetes.icon;prIcon=pod" vertex="1" parent="1">
          <mxGeometry x="582.5" y="660" width="50" height="48" as="geometry" />
        </mxCell>
        <mxCell id="PJXpSn4PHN6eOCxIjmZW-96" value="pod 2" style="sketch=0;html=1;dashed=0;whitespace=wrap;fillColor=#2875E2;strokeColor=#ffffff;points=[[0.005,0.63,0],[0.1,0.2,0],[0.9,0.2,0],[0.5,0,0],[0.995,0.63,0],[0.72,0.99,0],[0.5,1,0],[0.28,0.99,0]];verticalLabelPosition=bottom;align=center;verticalAlign=top;shape=mxgraph.kubernetes.icon;prIcon=pod" vertex="1" parent="1">
          <mxGeometry x="672.5" y="650" width="50" height="60" as="geometry" />
        </mxCell>
        <mxCell id="PJXpSn4PHN6eOCxIjmZW-98" value="Worker Node - 3" style="text;html=1;strokeColor=none;fillColor=none;align=center;verticalAlign=middle;whiteSpace=wrap;rounded=0;" vertex="1" parent="1">
          <mxGeometry x="615" y="760" width="165" height="30" as="geometry" />
        </mxCell>
        <mxCell id="PJXpSn4PHN6eOCxIjmZW-103" value="Cloud&#xa;SQL" style="sketch=0;html=1;verticalAlign=top;labelPosition=center;verticalLabelPosition=bottom;align=center;spacingTop=-6;fontSize=11;fontStyle=1;fontColor=#999999;shape=image;aspect=fixed;imageAspect=0;image=data:image/svg+xml,PHN2ZyB4bWxucz0iaHR0cDovL3d3dy53My5vcmcvMjAwMC9zdmciIHhtbG5zOnY9Imh0dHBzOi8vdmVjdGEuaW8vbmFubyIgd2lkdGg9IjE0LjY1OTk5OTg0NzQxMjExIiBoZWlnaHQ9IjIwIiB2aWV3Qm94PSIwIDAgMTQuNjU5OTk5ODQ3NDEyMTEgMjAiPiYjeGE7CTxzdHlsZSB0eXBlPSJ0ZXh0L2NzcyI+JiN4YTsJLnN0MHtmaWxsOiM0Mjg1ZjQ7fSYjeGE7CS5zdDF7ZmlsbDojNjY5ZGY2O30mI3hhOwkuc3Qye2ZpbGw6I2FlY2JmYTt9JiN4YTsJPC9zdHlsZT4mI3hhOwk8c3R5bGU+JiN4YTsJCS5Ee2ZpbGwtcnVsZTpldmVub2RkfSYjeGE7CTwvc3R5bGU+JiN4YTsJPHBhdGggZD0iTTcuMzMgMTUuMzV2LTMuMDFMMCA4LjQ0djMuMDF6bTAgNC42NXYtMy4wMUwwIDEzLjA5djMuMDF6IiBjbGFzcz0ic3QyIEQiLz4mI3hhOwk8cGF0aCBkPSJNMTQuNjYgOC40NGwtNy4zMyAzLjl2My4wMWw3LjMzLTMuOXptMCA0LjY1bC03LjMzIDMuOVYyMGw3LjMzLTMuOXoiIGNsYXNzPSJzdDEgRCIvPiYjeGE7CTxwYXRoIGQ9Ik03LjMzIDB2My4wMWw3LjMzIDMuOVYzLjl6IiBjbGFzcz0ic3QwIEQiLz4mI3hhOwk8cGF0aCBkPSJNMCA2LjkxbDcuMzMtMy45VjBMMCAzLjl6IiBjbGFzcz0iRCBzdDEiLz4mI3hhOwk8cGF0aCBkPSJNNy4zMyAxMC43OVY3Ljc3TDAgMy44N3YzLjAyeiIgY2xhc3M9IkQgc3QyIi8+JiN4YTsJPHBhdGggZD0iTTE0LjY2IDMuODdsLTcuMzMgMy45djMuMDJsNy4zMy0zLjl6IiBjbGFzcz0iRCBzdDEiLz4mI3hhOzwvc3ZnPg==;" vertex="1" parent="1">
          <mxGeometry x="377.5" y="799" width="53.33" height="70" as="geometry" />
        </mxCell>
        <mxCell id="PJXpSn4PHN6eOCxIjmZW-113" value="service: app1" style="rounded=0;whiteSpace=wrap;html=1;" vertex="1" parent="1">
          <mxGeometry x="65" y="540" width="90" height="30" as="geometry" />
        </mxCell>
        <mxCell id="PJXpSn4PHN6eOCxIjmZW-114" value="service: app2" style="rounded=0;whiteSpace=wrap;html=1;" vertex="1" parent="1">
          <mxGeometry x="170" y="540" width="85" height="30" as="geometry" />
        </mxCell>
        <mxCell id="PJXpSn4PHN6eOCxIjmZW-115" value="service: app1" style="rounded=0;whiteSpace=wrap;html=1;" vertex="1" parent="1">
          <mxGeometry x="305" y="540" width="90" height="30" as="geometry" />
        </mxCell>
        <mxCell id="PJXpSn4PHN6eOCxIjmZW-116" value="service: app2" style="rounded=0;whiteSpace=wrap;html=1;" vertex="1" parent="1">
          <mxGeometry x="410" y="540" width="85" height="30" as="geometry" />
        </mxCell>
        <mxCell id="PJXpSn4PHN6eOCxIjmZW-117" value="service: app1" style="rounded=0;whiteSpace=wrap;html=1;" vertex="1" parent="1">
          <mxGeometry x="560" y="540" width="90" height="30" as="geometry" />
        </mxCell>
        <mxCell id="PJXpSn4PHN6eOCxIjmZW-118" value="service: app2" style="rounded=0;whiteSpace=wrap;html=1;" vertex="1" parent="1">
          <mxGeometry x="665" y="540" width="85" height="30" as="geometry" />
        </mxCell>
        <mxCell id="PJXpSn4PHN6eOCxIjmZW-119" value="container 1" style="text;html=1;strokeColor=none;fillColor=none;align=center;verticalAlign=middle;whiteSpace=wrap;rounded=0;" vertex="1" parent="1">
          <mxGeometry x="70" y="730" width="80" height="30" as="geometry" />
        </mxCell>
        <mxCell id="PJXpSn4PHN6eOCxIjmZW-120" value="container 2" style="text;html=1;strokeColor=none;fillColor=none;align=center;verticalAlign=middle;whiteSpace=wrap;rounded=0;" vertex="1" parent="1">
          <mxGeometry x="165" y="730" width="80" height="30" as="geometry" />
        </mxCell>
        <mxCell id="PJXpSn4PHN6eOCxIjmZW-121" value="container 1" style="text;html=1;strokeColor=none;fillColor=none;align=center;verticalAlign=middle;whiteSpace=wrap;rounded=0;" vertex="1" parent="1">
          <mxGeometry x="312.5" y="730" width="80" height="30" as="geometry" />
        </mxCell>
        <mxCell id="PJXpSn4PHN6eOCxIjmZW-122" value="container 2" style="text;html=1;strokeColor=none;fillColor=none;align=center;verticalAlign=middle;whiteSpace=wrap;rounded=0;" vertex="1" parent="1">
          <mxGeometry x="407.5" y="730" width="80" height="30" as="geometry" />
        </mxCell>
        <mxCell id="PJXpSn4PHN6eOCxIjmZW-123" value="container 1" style="text;html=1;strokeColor=none;fillColor=none;align=center;verticalAlign=middle;whiteSpace=wrap;rounded=0;" vertex="1" parent="1">
          <mxGeometry x="567.5" y="730" width="80" height="30" as="geometry" />
        </mxCell>
        <mxCell id="PJXpSn4PHN6eOCxIjmZW-124" value="container 2" style="text;html=1;strokeColor=none;fillColor=none;align=center;verticalAlign=middle;whiteSpace=wrap;rounded=0;" vertex="1" parent="1">
          <mxGeometry x="662.5" y="730" width="80" height="30" as="geometry" />
        </mxCell>
      </root>
    </mxGraphModel>
  </diagram>
</mxfile>
